<svg id="Layer_1" data-name="Layer 1" xmlns="http://www.w3.org/2000/svg" viewBox="0 0 177.87 118.35"><defs><style>.cls-1{fill:#1a1a1a;}</style></defs><path class="cls-1" d="M177.05,96.16h-7.77a5.17,5.17,0,0,0-1.12-2.7c-.83-.83-2.25-1.26-4.21-1.26s-3.27.32-4,1a2.47,2.47,0,0,0-.86,2c0,1.18,1.63,2.12,4.87,2.84a76.69,76.69,0,0,1,8,2.06,11,11,0,0,1,1.08.43c3.29,1.55,4.92,3.91,4.92,7.06a8.93,8.93,0,0,1-4.79,8.43,12.31,12.31,0,0,1-1.21.59,18,18,0,0,1-7.17,1.34,19.7,19.7,0,0,1-9.81-2.14,9.34,9.34,0,0,1-3.51-3.43,9.66,9.66,0,0,1-1.17-4.84h8.14a3.86,3.86,0,0,0,1.5,3.24c1,.78,2.68,1.18,5.06,1.18a6.12,6.12,0,0,0,4-1.13,2.49,2.49,0,0,0,1-2q0-1.89-4.79-2.94a52.24,52.24,0,0,1-9-2.44c-3.26-1.52-4.87-3.88-4.87-7.15a9.35,9.35,0,0,1,2.54-6.66q3.23-3.41,9.62-3.4a20,20,0,0,1,8.43,1.5,2.74,2.74,0,0,1,.51.27,8.51,8.51,0,0,1,3.45,3.29A9.84,9.84,0,0,1,177.05,96.16Z"/><polygon class="cls-1" points="131.03 40.41 153.03 77.03 131.03 77.03 117.7 77.03 96.7 42.04 80.79 15.58 96.7 6.02 106.72 0 131.03 40.41"/><path class="cls-1" d="M147,102.45v15h-7.31V115.8a15.64,15.64,0,0,1-8.57,2.55H131a15.9,15.9,0,0,1,0-31.8h.09a15.71,15.71,0,0,1,8.57,2.54V87.35H147Zm-7.31,1.66v-3.32a8.76,8.76,0,0,0-8.57-7.07H131a8.74,8.74,0,0,0,0,17.48h.09A8.79,8.79,0,0,0,139.69,104.11Z"/><path class="cls-1" d="M112.66,102.45v15h-7.31V115.8a15.69,15.69,0,0,1-8.57,2.55H96.7a15.9,15.9,0,0,1,0-31.8h.08a15.76,15.76,0,0,1,8.57,2.54V77h7.31Zm-7.31,1.66v-3.32a8.75,8.75,0,0,0-8.57-7.07H96.7a8.74,8.74,0,0,0,0,17.48h.08A8.78,8.78,0,0,0,105.35,104.11Z"/><polygon class="cls-1" points="96.7 62.62 105.32 77.03 96.7 77.03 70.02 77.03 50.42 44.43 49.56 43.01 50.42 42.5 75.52 27.4 96.7 62.62"/><rect class="cls-1" x="70.05" y="86.55" width="7.95" height="30.91"/><rect class="cls-1" x="70.05" y="77.18" width="7.95" height="6.98"/><path class="cls-1" d="M66.41,102.45v15H59.1V115.8a15.79,15.79,0,0,1-8.6,2.55h-.08a15.9,15.9,0,0,1,0-31.8h.08a15.86,15.86,0,0,1,8.6,2.54V77h7.31Zm-7.31,1.66v-3.32a8.77,8.77,0,0,0-8.6-7.07h-.08a8.74,8.74,0,0,0,0,17.48h.08A8.8,8.8,0,0,0,59.1,104.11Z"/><polygon class="cls-1" points="50.42 64.98 57.65 77.03 50.42 77.03 22.32 77.03 18.36 70.41 44.31 54.84 50.42 64.98"/><path class="cls-1" d="M31.72,102.45v15H24.41V115.8a15.76,15.76,0,0,1-8.59,2.55h-.09a15.9,15.9,0,0,1,0-31.8h.09a15.83,15.83,0,0,1,8.59,2.54V87.35h7.31Zm-7.31,1.66v-3.32a8.75,8.75,0,0,0-8.59-7.07h-.09a8.74,8.74,0,0,0,0,17.48h.09A8.78,8.78,0,0,0,24.41,104.11Z"/></svg>