<svg id="Layer_1" data-name="Layer 1" xmlns="http://www.w3.org/2000/svg" viewBox="0 0 156.96 18.82"><defs><style>.cls-1{fill:#fff;}</style></defs><path class="cls-1" d="M13.62,13.21a5.22,5.22,0,0,1-.52,2.39,4.88,4.88,0,0,1-1.44,1.75,6.48,6.48,0,0,1-2.18,1.1,9.51,9.51,0,0,1-2.72.37A12.11,12.11,0,0,1,3,18.29a7.27,7.27,0,0,1-3-1.91L2.34,14a4.64,4.64,0,0,0,2,1.22,8.33,8.33,0,0,0,2.42.34A4.23,4.23,0,0,0,9.26,15a2,2,0,0,0,.83-1.71,2.09,2.09,0,0,0-.57-1.54,2.07,2.07,0,0,0-.63-.39,5.77,5.77,0,0,0-1-.23l-2.21-.34a8.17,8.17,0,0,1-2.1-.56,5.18,5.18,0,0,1-1.49-1A4.84,4.84,0,0,1,.73,5.62a5.79,5.79,0,0,1,.44-2.28A5.06,5.06,0,0,1,2.44,1.57a5.91,5.91,0,0,1,2-1.15A8.16,8.16,0,0,1,7.18,0a10.51,10.51,0,0,1,3.35.49,7.11,7.11,0,0,1,2.63,1.67L10.87,4.42A3.84,3.84,0,0,0,9,3.37a8.93,8.93,0,0,0-1.93-.22,3,3,0,0,0-2.14.68,2.26,2.26,0,0,0-.69,1.66,2.38,2.38,0,0,0,.11.7,1.72,1.72,0,0,0,.41.62,2.4,2.4,0,0,0,.69.44,3.23,3.23,0,0,0,1,.26l2.21.34a9.18,9.18,0,0,1,2.1.52,4.29,4.29,0,0,1,1.43.94A3.85,3.85,0,0,1,13.29,11,7.08,7.08,0,0,1,13.62,13.21Z"/><path class="cls-1" d="M30.81,18.67V10.92H24.54v7.75H20.93V.16h3.61V7.72h6.27V.16h3.61V18.67Z"/><path class="cls-1" d="M55.69,9.41c0,.89,0,1.68,0,2.39a11.62,11.62,0,0,1-.22,2,6.68,6.68,0,0,1-.56,1.65,5.47,5.47,0,0,1-1.08,1.45,6.55,6.55,0,0,1-2.13,1.45,7.31,7.31,0,0,1-2.81.5,7.43,7.43,0,0,1-2.82-.5,6.59,6.59,0,0,1-2.14-1.45,5.47,5.47,0,0,1-1.08-1.45,6.67,6.67,0,0,1-.55-1.65,14.17,14.17,0,0,1-.21-2c0-.71,0-1.5,0-2.39s0-1.68,0-2.39a14,14,0,0,1,.21-2,6.53,6.53,0,0,1,.55-1.65A5.51,5.51,0,0,1,43.89,2,6.57,6.57,0,0,1,46,.51,7.24,7.24,0,0,1,48.85,0a7.12,7.12,0,0,1,2.81.51A6.52,6.52,0,0,1,53.79,2a5.51,5.51,0,0,1,1.08,1.46,6.54,6.54,0,0,1,.56,1.65,11.5,11.5,0,0,1,.22,2C55.68,7.73,55.69,8.53,55.69,9.41Zm-3.61,0c0-.88,0-1.61,0-2.2a13.35,13.35,0,0,0-.16-1.44,3.78,3.78,0,0,0-.27-.92,2.87,2.87,0,0,0-.43-.64,3.09,3.09,0,0,0-2.32-1,3,3,0,0,0-1.34.28,3.3,3.3,0,0,0-1,.71,2.87,2.87,0,0,0-.43.64,3.78,3.78,0,0,0-.27.92,10,10,0,0,0-.14,1.44c0,.59,0,1.32,0,2.2s0,1.62,0,2.2A9.7,9.7,0,0,0,45.81,13a4,4,0,0,0,.27.91,3.12,3.12,0,0,0,.43.64,3.51,3.51,0,0,0,1,.72,3,3,0,0,0,1.34.29,3,3,0,0,0,1.34-.29,3.16,3.16,0,0,0,1-.72A3.12,3.12,0,0,0,51.6,14a4,4,0,0,0,.27-.91A12.84,12.84,0,0,0,52,11.61C52.06,11,52.08,10.3,52.08,9.41Z"/><path class="cls-1" d="M76.57,5.93a5.92,5.92,0,0,1-.42,2.22A5.39,5.39,0,0,1,75,10,5.55,5.55,0,0,1,73,11.25a7,7,0,0,1-2.57.45H66.9v7H63.28V.16h7.18A7,7,0,0,1,73,.61,5.42,5.42,0,0,1,75,1.86a5.3,5.3,0,0,1,1.19,1.85A5.92,5.92,0,0,1,76.57,5.93ZM73,5.93a2.48,2.48,0,0,0-.72-1.85,2.67,2.67,0,0,0-2-.7H66.9V8.45h3.38a2.71,2.71,0,0,0,2-.69A2.42,2.42,0,0,0,73,5.93Z"/><path class="cls-1" d="M104.39,18.67,97.06,7.31V18.67H93.44V.16h3.23L104,11.49V.16h3.61V18.67Z"/><path class="cls-1" d="M128.88,9.41c0,.89,0,1.68,0,2.39a11.62,11.62,0,0,1-.22,2,6.68,6.68,0,0,1-.56,1.65A5.47,5.47,0,0,1,127,16.87a6.55,6.55,0,0,1-2.13,1.45,7.31,7.31,0,0,1-2.81.5,7.43,7.43,0,0,1-2.82-.5,6.59,6.59,0,0,1-2.14-1.45A5.47,5.47,0,0,1,116,15.42a6.28,6.28,0,0,1-.55-1.65,14.17,14.17,0,0,1-.21-2c0-.71,0-1.5,0-2.39s0-1.68,0-2.39a14,14,0,0,1,.21-2A6.16,6.16,0,0,1,116,3.41,5.51,5.51,0,0,1,117.08,2,6.57,6.57,0,0,1,119.22.51,7.24,7.24,0,0,1,122,0a7.12,7.12,0,0,1,2.81.51A6.52,6.52,0,0,1,127,2a5.51,5.51,0,0,1,1.08,1.46,6.54,6.54,0,0,1,.56,1.65,11.5,11.5,0,0,1,.22,2C128.87,7.73,128.88,8.53,128.88,9.41Zm-3.61,0c0-.88,0-1.61-.06-2.2a11.44,11.44,0,0,0-.15-1.44,3.78,3.78,0,0,0-.27-.92,2.87,2.87,0,0,0-.43-.64,3.09,3.09,0,0,0-2.32-1,3,3,0,0,0-1.34.28,3.3,3.3,0,0,0-1,.71,2.87,2.87,0,0,0-.43.64,3.78,3.78,0,0,0-.27.92,10,10,0,0,0-.14,1.44c0,.59,0,1.32,0,2.2s0,1.62,0,2.2A9.7,9.7,0,0,0,119,13a4,4,0,0,0,.27.91,3.12,3.12,0,0,0,.43.64,3.51,3.51,0,0,0,1,.72,3,3,0,0,0,1.34.29,3,3,0,0,0,1.34-.29,3.16,3.16,0,0,0,1-.72,3.12,3.12,0,0,0,.43-.64,4,4,0,0,0,.27-.91,11.06,11.06,0,0,0,.15-1.43C125.25,11,125.27,10.3,125.27,9.41Z"/><path class="cls-1" d="M152,18.67h-3L145.57,7.44l-3.4,11.23h-3L134.21.16H138l2.86,11.67L144.22.16h2.7l3.39,11.67L153.19.16H157Z"/></svg>