<svg id="Layer_1" data-name="Layer 1" xmlns="http://www.w3.org/2000/svg" viewBox="0 0 177.87 40.43"><defs><style>.cls-1{fill:#fff;}</style></defs><path class="cls-1" d="M6.79,40.43V7H0V0H21.25V7H14.34V40.43Z"/><path class="cls-1" d="M41.37,23.84H34.88V40.43H27.32V0h7.56V16.82h6.49V0h7.55V40.43H41.37Z"/><path class="cls-1" d="M56.3,0H74.54V6.85H63.85v9.62H73.3v7H63.85V33.58H74.77v6.85H56.3Z"/><path class="cls-1" d="M98.49,16.94V40.43H91.65V0h7.67l7.26,23.14V0h6.79V40.43h-7.26Z"/><path class="cls-1" d="M120.8,0H139V6.85H128.35v9.62h9.45v7h-9.45V33.58h10.92v6.85H120.8Z"/><path class="cls-1" d="M160.93,15.82l-2.72,24.61H149L144,0h7.08l2.72,29.22L157.5,0h7.09l3.77,29.81L171.14,0h6.73l-4.78,40.43H163.7Z"/></svg>